<svg xmlns="http://www.w3.org/2000/svg" aria-hidden="true" focusable="false" data-prefix="fad" data-icon="mobile-android-alt" role="img" viewBox="0 0 320 512" class="svg-inline--fa fa-mobile-android-alt fa-w-10 fa-3x" style="&#10;    color: white;&#10;    /* background-color: #000; */&#10;"><g class="fa-group"><path fill="currentColor" d="M272 0H48A48 48 0 0 0 0 48v416a48 48 0 0 0 48 48h224a48 48 0 0 0 48-48V48a48 48 0 0 0-48-48zm-64 452a12 12 0 0 1-12 12h-72a12 12 0 0 1-12-12v-8a12 12 0 0 1 12-12h72a12 12 0 0 1 12 12zm64-80a12 12 0 0 1-12 12H60a12 12 0 0 1-12-12V60a12 12 0 0 1 12-12h200a12 12 0 0 1 12 12z" class="fa-secondary" style="&#10;    /* color: white; */&#10;"/><path fill="currentColor" d="M272 372a12 12 0 0 1-12 12H60a12 12 0 0 1-12-12V60a12 12 0 0 1 12-12h200a12 12 0 0 1 12 12z" class="fa-primary" style="&#10;    color: #2595beec;&#10;"/></g></svg>